<svg width="50" height="50" viewBox="0 0 50 50" fill="none" xmlns="http://www.w3.org/2000/svg">
<path d="M33.6531 16.3669C34.0196 16.3669 34.3171 16.6644 34.3171 17.0309C34.3171 17.3975 34.0196 17.695 33.6531 17.695C33.2865 17.695 32.989 17.3975 32.989 17.0309C32.989 16.6644 33.2865 16.3669 33.6531 16.3669Z" fill="#6D6B80"/>
<path d="M27.6768 28.784H29.6689V26.7919C29.6689 26.4252 29.9663 26.1279 30.333 26.1279C30.6997 26.1279 30.997 26.4252 30.997 26.7919V28.784H32.989C33.3557 28.784 33.6531 29.0814 33.6531 29.448C33.6531 29.8146 33.3557 30.112 32.989 30.112H30.997V32.1041C30.997 32.4708 30.6996 32.7682 30.333 32.7682C29.9663 32.7682 29.6689 32.4708 29.6689 32.1041V30.112H27.6768C27.3102 30.112 27.0128 29.8147 27.0128 29.448C27.0128 29.0813 27.3101 28.784 27.6768 28.784Z" fill="#6D6B80"/>
<path d="M9.75451 29.3818C11.2224 26.8393 14.4681 25.9692 17.011 27.4374L19.7083 28.9947V23.2282C19.7083 22.5153 19.944 21.8079 20.3723 21.2362L23.6924 16.8095V14.9244C22.9195 14.6503 22.3643 13.9123 22.3643 13.0465V9.99205C22.3645 8.89363 23.2581 8 24.3565 8H36.309C37.4075 8 38.3012 8.89363 38.3012 9.99205V13.0466C38.3012 13.9122 37.7459 14.6504 36.9731 14.9245V16.8095L40.2935 21.2365C40.7215 21.808 40.9573 22.5153 40.9573 23.2282V36.0884C40.9573 37.9192 39.4678 39.4086 37.6372 39.4086H26.9655C25.4767 41.9043 22.2662 42.7396 19.7496 41.2865L11.6987 36.6382C9.1783 35.1827 8.27922 31.9381 9.75451 29.3818ZM36.9731 9.99205C36.9731 9.62589 36.6752 9.32799 36.3091 9.32799H24.3566C23.9904 9.32799 23.6925 9.62589 23.6925 9.99205V13.0466C23.6925 13.4128 23.9904 13.7106 24.3566 13.7106H36.309C36.6752 13.7106 36.973 13.4127 36.973 13.0466V9.99205H36.9731ZM39.2307 22.0329L35.7779 17.4292C35.6917 17.3143 35.645 17.1745 35.645 17.0308V15.0387H25.0206V16.3668H30.9968C31.3635 16.3668 31.6609 16.6642 31.6609 17.0309C31.6609 17.3975 31.3635 17.6949 30.9968 17.6949H24.6885L21.4351 22.0327C21.2225 22.3166 21.0904 22.6563 21.0505 23.0071H39.6151C39.5752 22.6562 39.4431 22.3165 39.2307 22.0329ZM37.6371 38.0805C38.7355 38.0805 39.6292 37.1869 39.6292 36.0884V35.4178H27.5648C27.7754 36.2788 27.774 37.1984 27.5329 38.0806H37.6371V38.0805ZM27.044 34.0963H39.6292V24.3351H21.0364V29.7613L25.0619 32.0857C25.9012 32.5705 26.5796 33.2607 27.044 34.0963ZM20.4135 40.1363C22.3192 41.2367 24.7543 40.5859 25.8554 38.679C26.9618 36.7536 26.2913 34.3295 24.3977 33.2357L20.7933 31.1547L16.8092 38.0553L20.4135 40.1363ZM12.3628 35.4881L15.659 37.3913L19.6433 30.4905L16.347 28.5876C14.4401 27.4867 12.0058 28.1386 10.9047 30.0457C9.79867 31.9623 10.4712 34.3958 12.3628 35.4881Z" fill="#6D6B80"/>
</svg>
