<svg width="50" height="50" viewBox="0 0 50 50" fill="none" xmlns="http://www.w3.org/2000/svg">
<path d="M28.9833 36.9674C29.1779 37.0593 29.4044 37.0587 29.5984 36.9668C31.1343 36.2378 32.6101 34.8503 32.6084 33.063C32.6063 31.3312 30.4848 30.4701 29.2871 31.6898C28.0657 30.4651 25.9638 31.3443 25.9653 33.0698C25.9674 34.8944 27.5257 36.2794 28.9833 36.9674ZM28.6108 32.6717C28.7164 32.8579 28.9917 33.0633 29.3077 33.0543C29.5781 33.0478 29.8251 32.8913 29.9608 32.6732C30.433 31.9138 31.4649 32.2929 31.4658 33.0641C31.467 34.2954 30.3577 35.2797 29.2886 35.8438C28.2032 35.2844 27.1094 34.2909 27.1082 33.0686C27.1076 32.2518 28.202 31.9522 28.6108 32.6717V32.6717Z" fill="#6D6B80"/>
<path d="M25.7617 43.9287C25.7617 44.2441 26.0173 44.5 26.333 44.5H36.6855C37.4895 44.5 38.1438 43.846 38.1438 43.0421C38.1438 42.1878 38.1438 35.2106 38.1438 34.3561C38.1438 34.0407 37.8879 33.7848 37.5725 33.7848C37.2568 33.7848 37.0009 34.0407 37.0009 34.3561V37.1093H34.0243C33.2203 37.1093 32.5663 37.7633 32.5663 38.5676V43.3575H26.333C26.0176 43.3575 25.7617 43.613 25.7617 43.9287V43.9287ZM33.7089 38.5676C33.7089 38.3935 33.8505 38.2519 34.0243 38.2519H37.0012V43.0418C37.0012 43.2158 36.8596 43.3575 36.6855 43.3575H33.7089V38.5676Z" fill="#6D6B80"/>
<path d="M38.1438 31.1405C38.1438 27.7627 35.2514 26.5347 35.1285 26.4842C35.1249 26.4827 35.1211 26.4812 35.1175 26.4797L28.2873 23.8345V22.2328C29.3772 21.3851 30.1312 20.1268 30.3157 18.6917C31.5713 18.5218 32.608 17.5152 32.608 16.2813C32.608 15.7302 32.4006 15.2018 32.0188 14.7698V12.5804C32.0188 8.67631 28.8428 5.5 24.9387 5.5C21.0346 5.5 17.8583 8.67631 17.8583 12.5804V14.8192C17.4774 15.2429 17.2692 15.7555 17.2692 16.2813C17.2692 17.5108 18.3005 18.5209 19.5612 18.6917C19.7501 20.1786 20.5434 21.4735 21.7053 22.3173V23.8348C21.6984 23.8375 14.8784 26.4812 14.8715 26.4842C14.7484 26.5347 11.8562 27.7624 11.8562 31.1405V43.042C11.8562 43.846 12.5105 44.5 13.3145 44.5H23.667C23.9824 44.5 24.2383 44.2441 24.2383 43.9287C24.2383 43.613 23.9824 43.3574 23.667 43.3574H17.434V38.5675C17.434 37.7633 16.7797 37.1092 15.9757 37.1092H12.9988V31.1405C12.9988 28.5679 15.1694 27.5994 15.3024 27.5425L20.0542 25.7001C20.8522 27.4048 23.1273 28.2638 24.9961 28.2638C26.8627 28.2638 29.1401 27.4063 29.9384 25.6995L34.6973 27.5425C34.8003 27.5869 37.001 28.5682 37.001 31.1405V31.69C37.001 32.0054 37.2568 32.2613 37.5722 32.2613C37.8879 32.2613 38.1435 32.0054 38.1435 31.69V31.1405H38.1438ZM12.9988 38.2518H15.9757C16.1495 38.2518 16.2911 38.3935 16.2911 38.5675V43.3574H13.3142C13.1404 43.3574 12.9988 43.2158 12.9988 43.042V38.2518ZM31.4657 16.2813C31.4657 16.8761 30.9503 17.3682 30.3612 17.5209V15.0435C30.9855 15.2072 31.4657 15.7103 31.4657 16.2813ZM19.5162 17.5212C18.9262 17.3682 18.4117 16.8752 18.4117 16.2813C18.4117 15.7118 18.961 15.2515 19.5162 15.078V17.5212ZM19.5406 13.8974C19.3579 13.9298 19.1767 13.9801 19.0009 14.047V12.5804C19.0009 9.30621 21.6645 6.64258 24.9384 6.64258C28.2126 6.64258 30.8763 9.30621 30.8763 12.5804V14.0057C30.7022 13.9444 30.5171 13.9009 30.3612 13.8771C30.3612 13.7453 30.3636 13.6418 30.3377 13.5391C30.263 13.2433 29.9568 12.969 28.6149 11.5277C28.1936 11.0748 27.6616 11.0537 27.2646 11.3132C25.2744 12.6134 22.847 13.2669 20.6061 13.1059C20.1012 13.0675 19.6498 13.4097 19.5406 13.8974ZM20.6588 18.0062C20.6588 17.5631 20.6588 14.6311 20.6588 14.2544C23.0853 14.396 25.6722 13.6906 27.799 12.3284C28.6206 13.2106 29.0743 13.6825 29.2186 13.8596V18.0062C29.2186 20.3502 27.3066 22.2138 25.0137 22.2165C25.0116 22.2165 25.0098 22.2168 25.008 22.2168C25.0066 22.2168 25.0051 22.2165 25.0036 22.2165C22.4036 22.2147 20.6588 20.1967 20.6588 18.0062ZM27.1447 22.9139V24.0127C26.5815 24.6218 25.7998 24.9518 24.9961 24.9518C24.1883 24.9518 23.4111 24.6218 22.8479 24.0127V22.9499C23.5426 23.2293 24.2924 23.3593 25.008 23.3593C25.7531 23.3593 26.4892 23.2007 27.1447 22.9139ZM21.8776 26.1551C21.5586 25.9343 21.3003 25.6347 21.1233 25.2859L22.1159 24.9009C22.8547 25.6415 23.8812 26.0944 24.9961 26.0944C26.0804 26.0944 27.1162 25.6629 27.8767 24.9009L28.8696 25.2853C28.0534 26.8942 24.5593 28.0094 21.8776 26.1551Z" fill="#6D6B80"/>
</svg>
