<svg width="50" height="50" viewBox="0 0 50 50" fill="none" xmlns="http://www.w3.org/2000/svg">
<path d="M13.375 25C13.375 19.2552 17.5788 14.5164 23.0625 13.585V15.3125L26.9374 12.4063L23.0625 9.5V11.5944C16.501 12.5396 11.4375 18.1821 11.4375 25C11.4375 29.9003 14.0591 34.1895 17.965 36.573L19.6494 35.3097C15.9266 33.3697 13.375 29.4806 13.375 25Z" fill="#6D6B80"/>
<path d="M38.5625 24.9999C38.5625 20.0997 35.9409 15.8104 32.035 13.4269L30.3506 14.6903C34.0734 16.6303 36.625 20.5193 36.625 24.9999C36.625 30.7463 32.4232 35.4989 26.9375 36.4281V34.6873L23.0625 37.5935L26.9375 40.4999V38.4041C33.4985 37.4588 38.5624 31.8178 38.5625 24.9999Z" fill="#6D6B80"/>
</svg>
