<svg width="50" height="50" viewBox="0 0 50 50" fill="none" xmlns="http://www.w3.org/2000/svg">
<path d="M40.056 40.259L38.5519 31.4534C38.3898 30.5046 37.7168 29.7425 36.7953 29.4645L32.7384 28.2404C32.6544 27.2487 32.2478 26.3131 31.5711 25.5726C31.0298 24.9802 30.349 24.5489 29.5986 24.3109C29.727 24.1684 29.8461 24.0264 29.9553 23.8874C30.9201 22.6604 31.4366 21.3087 31.5681 20.3862H31.881C32.695 20.3862 33.3573 19.724 33.3573 18.9099V18.1532C33.3573 17.6099 33.0517 17.1176 32.5921 16.8622V15.0424C32.5921 14.7674 32.3692 14.5445 32.0942 14.5445C31.8192 14.5445 31.5963 14.7673 31.5963 15.0424V17.0853C31.4024 17.119 31.1711 17.1771 30.9344 17.2768C30.9102 17.2857 30.8866 17.2959 30.8643 17.3082C30.8108 17.3325 30.7573 17.3582 30.704 17.3872V13.3748C30.704 12.2663 29.8022 11.3645 28.6937 11.3645H27.3194C26.8454 11.3645 26.3823 11.5296 26.0154 11.8296L25.8805 11.9399C25.6328 12.1424 25.3202 12.254 25.0001 12.254C24.6801 12.254 24.3674 12.1424 24.1197 11.9399L23.9849 11.8296C23.618 11.5297 23.1549 11.3645 22.6809 11.3645H21.3065C20.198 11.3645 19.2962 12.2663 19.2962 13.3748V17.3872C19.2429 17.3582 19.1893 17.3325 19.1359 17.3082C19.1136 17.2959 19.0901 17.2857 19.0658 17.2768C18.8291 17.1771 18.5977 17.119 18.4039 17.0853V11.9196C18.4039 10.3074 19.7155 8.99576 21.3277 8.99576H28.6723C30.2846 8.99576 31.5962 10.3074 31.5962 11.9196V12.7023C31.5962 12.9773 31.8191 13.2002 32.0941 13.2002C32.369 13.2002 32.592 12.9773 32.592 12.7023V11.9196C32.592 9.75837 30.8336 8 28.6723 8H21.3277C19.1664 8 17.4081 9.75837 17.4081 11.9196V16.8622C16.9485 17.1177 16.6429 17.6099 16.6429 18.1532V18.91C16.6429 19.7241 17.3052 20.3863 18.1192 20.3863H18.4322C18.5636 21.3087 19.0802 22.6605 20.0449 23.8875C20.154 24.0263 20.273 24.1682 20.4013 24.3106C18.6761 24.8586 17.4179 26.4097 17.2618 28.2404L13.2048 29.4645C12.2833 29.7425 11.6102 30.5046 11.4482 31.4534L10.8374 35.0293C10.7911 35.3003 10.9733 35.5575 11.2443 35.6038C11.5152 35.6502 11.7725 35.4679 11.8189 35.1969L12.4297 31.621C12.5277 31.047 12.9349 30.586 13.4924 30.4178L17.2447 29.2857V30.2705C16.3846 30.4288 15.6527 31.0197 15.3513 31.8383C15.2713 32.0555 15.2216 32.283 15.2035 32.5144L14.8409 37.1691C14.8135 37.5198 14.9348 37.8689 15.1735 38.1269C15.4123 38.385 15.7509 38.5331 16.1025 38.5331H16.7233C16.9983 38.5331 17.2212 38.3102 17.2212 38.0351C17.2212 37.7601 16.9983 37.5373 16.7233 37.5373H16.1025C16.0275 37.5373 15.9554 37.5058 15.9045 37.4507C15.8536 37.3957 15.8278 37.3213 15.8336 37.2466L16.1963 32.5918C16.2072 32.4516 16.2373 32.3139 16.2858 32.1823C16.4955 31.6129 17.0618 31.2272 17.6951 31.2228L17.7771 31.2222C17.781 31.2221 17.7848 31.2221 17.7886 31.2221C18.4041 31.2221 18.9489 31.5712 19.1788 32.1138C19.2433 32.2659 19.2824 32.4267 19.2953 32.5918L19.6581 37.2467C19.6639 37.3213 19.638 37.3957 19.5872 37.4508C19.5363 37.5058 19.4641 37.5373 19.3891 37.5373H18.7684C18.4934 37.5373 18.2705 37.7602 18.2705 38.0351C18.2705 38.3101 18.4934 38.5331 18.7684 38.5331H19.3891C19.7408 38.5331 20.0794 38.385 20.3181 38.1269C20.5569 37.8688 20.6782 37.5197 20.6509 37.1692L20.2881 32.5144C20.2668 32.242 20.2021 31.9764 20.0956 31.7252C19.7677 30.9511 19.0663 30.4129 18.2404 30.2673V28.9852L19.9519 28.4688C20.1077 28.7968 20.4163 29.5055 21.0275 31.0333C21.6436 32.5749 22.4093 34.5508 23.1437 36.4717C23.1489 36.4878 23.155 36.5036 23.1618 36.519C23.6518 37.8013 24.1272 39.0573 24.5338 40.1408C24.6068 40.3351 24.7925 40.4638 25 40.4638C25.2075 40.4638 25.3933 40.3351 25.4662 40.1408C25.8727 39.0573 26.3481 37.8013 26.8383 36.519C26.8451 36.5036 26.8511 36.4877 26.8563 36.4717C27.5902 34.5519 28.3555 32.5773 28.9713 31.0362C29.5834 29.5064 29.8922 28.797 30.048 28.4688L31.7596 28.9852V31.926C30.5737 32.1564 29.6754 33.2023 29.6754 34.4546C29.6754 35.8751 30.8311 37.0308 32.2516 37.0308C33.6722 37.0308 34.8279 35.8752 34.8279 34.4546C34.8279 33.2064 33.9355 32.163 32.7553 31.9282V29.2857L36.5077 30.4179C37.0652 30.586 37.4723 31.047 37.5704 31.621L39.0745 40.4267C39.0995 40.5727 39.0606 40.7155 38.965 40.8287C38.8696 40.9419 38.7353 41.0043 38.5872 41.0043H11.4128C11.2647 41.0043 11.1305 40.9419 11.035 40.8287C10.9395 40.7155 10.9006 40.5728 10.9255 40.4267L11.4219 37.5206C11.4682 37.2496 11.286 36.9924 11.015 36.9461C10.7441 36.8996 10.4867 37.082 10.4404 37.353L9.94399 40.2591C9.86994 40.6929 9.99021 41.1345 10.2739 41.4709C10.5577 41.8072 10.9728 42 11.4128 42H38.5872C39.0272 42 39.4424 41.8072 39.7261 41.4708C40.0098 41.1345 40.1301 40.6928 40.056 40.259ZM31.6022 18.0997C31.8675 18.0335 32.0804 18.0347 32.0828 18.0348C32.1686 18.0359 32.252 18.0159 32.3261 17.977C32.3483 18.0322 32.3614 18.0915 32.3614 18.1532V18.91C32.3614 19.175 32.1459 19.3905 31.8809 19.3905H31.6022V18.0997ZM18.3978 19.3905H18.1191C17.8542 19.3905 17.6386 19.175 17.6386 18.91V18.1532C17.6386 18.0915 17.6518 18.0322 17.6739 17.9771C17.7479 18.0159 17.8313 18.036 17.9172 18.0348C17.921 18.0354 18.1333 18.0343 18.3978 18.0999V19.3905ZM19.3936 19.9488V18.6407C19.5445 18.686 19.7095 18.6798 19.8618 18.6162C20.1231 18.5072 20.2919 18.254 20.2919 17.971V13.3748C20.2919 12.8154 20.7471 12.3602 21.3065 12.3602H22.6808C22.9257 12.3602 23.1649 12.4456 23.3545 12.6006L23.4893 12.7108C23.9144 13.0584 24.4509 13.2497 25 13.2497C25.5491 13.2497 26.0856 13.0583 26.5107 12.7108L26.6455 12.6006C26.835 12.4456 27.0743 12.3602 27.3192 12.3602H28.6935C29.2529 12.3602 29.7081 12.8154 29.7081 13.3748V17.9711C29.7081 18.254 29.8769 18.5073 30.1382 18.6163C30.2255 18.6527 30.3168 18.6704 30.4074 18.6704C30.4749 18.6704 30.5419 18.6605 30.6064 18.6412V19.9488C30.6064 20.6758 30.1039 22.0874 29.1724 23.272C28.8639 23.6644 28.4673 24.0859 27.9791 24.4543C27.9636 24.4647 27.9488 24.4759 27.9346 24.4879C27.1782 25.0471 26.2055 25.4756 25 25.4756C23.7945 25.4756 22.8218 25.0471 22.0653 24.4878C22.0512 24.4759 22.0364 24.4647 22.021 24.4544C21.5327 24.0859 21.1362 23.6644 20.8276 23.272C19.8962 22.0875 19.3936 20.6758 19.3936 19.9488ZM28.2619 27.9929L25 30.431L21.7381 27.9929C22.0616 27.5818 22.2428 27.0541 22.2428 26.5831V25.7805C23.0099 26.1931 23.9252 26.4714 25 26.4714C26.0749 26.4714 26.9902 26.1931 27.7572 25.7805V26.5831C27.7572 27.0541 27.9384 27.5818 28.2619 27.9929ZM20.9072 27.4372C20.6413 27.3359 20.3465 27.3193 20.0677 27.3949C20.0555 27.3978 20.0435 27.4011 20.0319 27.4045L18.3118 27.9235C18.6027 26.493 19.7643 25.3544 21.2471 25.1339V26.5831C21.2471 26.8955 21.1076 27.2184 20.9072 27.4372ZM22.2585 31.434C22.2576 31.4317 22.2566 31.4294 22.2558 31.4271C22.2305 31.3633 22.2056 31.3004 22.1809 31.2381C22.1765 31.2268 22.172 31.2156 22.1676 31.2045C22.1434 31.1436 22.1194 31.0831 22.0958 31.0237C22.0941 31.0195 22.0925 31.0154 22.0908 31.0112C22.017 30.8257 21.9459 30.6478 21.8775 30.4773C21.8725 30.465 21.8676 30.4524 21.8626 30.4401C21.8429 30.3913 21.8236 30.3431 21.8044 30.2956C21.7974 30.2781 21.7904 30.2608 21.7834 30.2436C21.7648 30.1975 21.7464 30.1517 21.7282 30.1068C21.7227 30.0934 21.7174 30.0804 21.712 30.0671C21.679 29.9856 21.6468 29.9063 21.6153 29.8289C21.6068 29.808 21.5981 29.7867 21.5897 29.766C21.5773 29.7359 21.5653 29.7065 21.5532 29.677C21.5402 29.6451 21.5272 29.6135 21.5144 29.5824C21.5096 29.5708 21.5047 29.5585 21.4999 29.547C21.496 29.5377 21.4925 29.5291 21.4887 29.5199C21.4312 29.3802 21.3766 29.2485 21.3247 29.1246C21.3243 29.1236 21.3238 29.1226 21.3234 29.1216C21.2958 29.0557 21.2688 28.9913 21.2428 28.9299C21.2293 28.8981 21.2161 28.8668 21.203 28.8362L24.0084 30.9329L22.8362 31.4308C22.8341 31.4317 22.832 31.4326 22.8299 31.4335L22.3405 31.6414C22.3127 31.5712 22.2856 31.5024 22.2585 31.434ZM23.4465 34.4826C23.3482 34.2274 23.2491 33.9708 23.1498 33.7144C22.9945 33.3133 22.8463 32.932 22.7043 32.5688L22.8902 32.4898L23.6493 33.3723L23.4465 34.4826ZM25.0096 38.5293C24.9954 38.4997 24.9784 38.4717 24.9587 38.4457C24.7337 37.851 24.4482 37.0986 24.1321 36.2707L24.597 33.7256H25.403L25.8679 36.2707C25.5367 37.138 25.2393 37.9223 25.0096 38.5293ZM25.5898 32.73H24.4103L23.8521 32.0812L25 31.5935L26.1479 32.0812L25.5898 32.73ZM26.8502 33.7144C26.7509 33.9708 26.6519 34.2274 26.5535 34.4826L26.3507 33.3722L27.1099 32.4898L27.2957 32.5687C27.1538 32.932 27.0055 33.3133 26.8502 33.7144ZM28.7573 28.9299C28.7326 28.9881 28.707 29.0491 28.6809 29.1114C28.6775 29.1195 28.6741 29.1277 28.6707 29.1358C28.6448 29.1976 28.6186 29.2607 28.5913 29.3264C28.5895 29.3307 28.5877 29.3353 28.5859 29.3396C28.5624 29.3963 28.5383 29.4547 28.5138 29.5143C28.5092 29.5255 28.5049 29.5357 28.5003 29.547C28.4948 29.5603 28.489 29.5745 28.4835 29.5879C28.4726 29.6145 28.4615 29.6416 28.4503 29.6687C28.4367 29.7021 28.4231 29.7354 28.409 29.7696C28.4046 29.7805 28.4 29.7918 28.3955 29.8028C28.3608 29.8877 28.3252 29.9752 28.2888 30.0651C28.2831 30.0792 28.2775 30.093 28.2718 30.1073C28.2538 30.1517 28.2355 30.1971 28.2171 30.2427C28.2099 30.2606 28.2027 30.2784 28.1954 30.2964C28.1764 30.3435 28.1572 30.3912 28.1378 30.4395C28.1324 30.453 28.1269 30.4668 28.1214 30.4804C28.0539 30.6485 27.9838 30.8239 27.9111 31.0066C27.9087 31.0127 27.9063 31.0186 27.904 31.0247C27.8804 31.0837 27.8567 31.1438 27.8326 31.2043C27.8282 31.2156 27.8237 31.2268 27.8192 31.2382C27.7943 31.3008 27.7693 31.364 27.7439 31.4282C27.7435 31.4294 27.743 31.4306 27.7425 31.4317C27.7152 31.5009 27.6877 31.5705 27.6596 31.6416L27.1698 31.4334C27.168 31.4327 27.1663 31.432 27.1647 31.4312L25.9918 30.933L28.7971 28.8363C28.784 28.8668 28.7707 28.898 28.7573 28.9299ZM29.9681 27.4046C29.9681 27.4046 29.9679 27.4045 29.9679 27.4045C29.9675 27.4044 29.967 27.4043 29.9666 27.4041C29.6777 27.3174 29.3696 27.3318 29.0929 27.4372C28.8924 27.2184 28.753 26.8955 28.753 26.5831V25.1331C30.2451 25.3531 31.4032 26.481 31.6903 27.9241L29.9681 27.4046ZM33.8321 34.4546C33.8321 35.3261 33.1231 36.0351 32.2516 36.0351C31.3802 36.0351 30.6712 35.3261 30.6712 34.4546C30.6712 33.5831 31.3802 32.8741 32.2516 32.8741C33.1231 32.8741 33.8321 33.5831 33.8321 34.4546Z" fill="#6D6B80"/>
</svg>
